<?xml version="1.0" encoding="UTF-8"?>
<svg id="_圖層_1" data-name="圖層 1" xmlns="http://www.w3.org/2000/svg" viewBox="0 0 64 64">
  <path d="M31.95,63.5c-17.35-.01-31.46-14.17-31.45-31.55C.51,14.6,14.67,.49,32.05,.5c17.35,.01,31.46,14.17,31.45,31.55-.01,17.35-14.17,31.46-31.55,31.45Zm25.05-31.47c0-13.82-11.15-25.02-24.94-25.03-13.82-.02-25.04,11.13-25.06,24.91-.03,13.88,11.14,25.09,24.99,25.09,13.81,0,25-11.17,25.01-24.97Z"/>
  <path d="M46.24,34.37l-11.74-11.74c-1.38-1.38-3.63-1.38-5,0l-11.74,11.74c-1.38,1.38-1.38,3.63,0,5,1.38,1.38,3.63,1.38,5,0l9.23-9.23,9.23,9.23c1.38,1.38,3.63,1.38,5,0,1.38-1.38,1.38-3.63,0-5Z"/>
</svg>