<?xml version="1.0" encoding="UTF-8"?>
<svg id="_圖層_1" data-name="圖層 1" xmlns="http://www.w3.org/2000/svg" viewBox="0 0 64 64">
  <path d="M57.8,34.54c0,8.41-.01,16.82,.01,25.24,0,1.37-.16,2.62-1.47,3.35-1.36,.77-2.55,.23-3.75-.52-6.51-4.09-13.04-8.15-19.54-12.26-.79-.5-1.34-.48-2.12,.01-6.46,4.08-12.95,8.12-19.43,12.17-.27,.17-.53,.34-.8,.49-2.21,1.24-4.49-.05-4.5-2.58-.01-17.23-.03-35.46,0-52.68,.01-4.63,2.9-7.23,7.8-7.24,11.15-.03,23.29,0,34.44,0,.36,0,1.72,0,2.07,.01,4.63,.17,7.26,2.87,7.27,7.52,.02,8.5,0,18,0,26.51ZM12.91,53.73c.58-.34,.94-.54,1.29-.76,5.19-3.24,10.4-6.44,15.55-9.74,1.56-1,2.89-1.03,4.46-.03,5.19,3.32,10.43,6.55,15.65,9.81,.34,.21,.7,.39,1.16,.63,.03-.36,.06-.56,.06-.77,0-14.24,0-28.49,0-42.73,0-2.15-1.08-3.19-3.24-3.19-10.38,0-20.76,0-31.13,0-2.94,0-3.79,.85-3.79,3.79,0,13.82,0,27.63,0,41.45,0,.42,0,.84,0,1.52Z"/>
</svg>