<?xml version="1.0" encoding="UTF-8"?>
<svg id="_圖層_1" data-name="圖層 1" xmlns="http://www.w3.org/2000/svg" viewBox="0 0 64 64">
  <defs>
    <style>
      .cls-1 {
        fill: #231815;
      }
    </style>
  </defs>
  <path class="cls-1" d="M55.34,17.83c0-3.01-2.46-5.47-5.47-5.47h-6.63v-1c0-5.98-4.89-10.87-10.87-10.87s-10.87,4.89-10.87,10.87v1h-7.39c-3.01,0-5.47,2.46-5.47,5.47L4.28,58.03c0,3.01,2.46,5.47,5.47,5.47H54.25c3.01,0,5.47-2.46,5.47-5.47l-4.37-40.2Zm-27.45-6.7c0-2.46,2.01-4.47,4.47-4.47s4.47,2.01,4.47,4.47v1.23h-8.93v-1.23Zm24.53,46.28H11.58c-.6,0-1.09-.49-1.09-1.09L14.86,19.54c0-.6,.49-1.09,1.09-1.09h5.57v4.07c-.02,.15-.05,.3-.05,.46,0,1.77,1.44,3.21,3.21,3.21s3.21-1.44,3.21-3.21v-4.53h8.93v4.53h0c.03,1.75,1.45,3.16,3.21,3.16s3.18-1.41,3.21-3.16h0v-4.53h4.8c.6,0,1.09,.49,1.09,1.09l4.37,36.78c0,.6-.49,1.09-1.09,1.09Z"/>
</svg>