<?xml version="1.0" encoding="UTF-8"?>
<svg id="_圖層_1" data-name="圖層 1" xmlns="http://www.w3.org/2000/svg" viewBox="0 0 64 64">
  <defs>
    <style>
      .cls-1 {
        fill: #231815;
      }
    </style>
  </defs>
  <path class="cls-1" d="M61.97,55.77c1.76,1.76,1.76,4.65,0,6.41s-4.65,1.76-6.41,0l-10.15-10.14c-4.62,3.26-10.25,5.19-16.34,5.19C13.41,57.23,.71,44.53,.71,28.86S13.41,.5,29.07,.5s28.37,12.7,28.37,28.36c0,6.31-2.07,12.14-5.54,16.84l10.07,10.07Zm-11.79-27.04c0-11.66-9.45-21.1-21.11-21.1S7.98,17.08,7.98,28.73s9.45,21.1,21.1,21.1,21.11-9.44,21.11-21.1Z"/>
</svg>