<?xml version="1.0" encoding="UTF-8"?>
<svg id="_圖層_1" data-name="圖層 1" xmlns="http://www.w3.org/2000/svg" viewBox="0 0 64 64">
  <path d="M22.38,15.11c-1.57-.05-3.13-.02-4.87-.02,.68,.97,1.24,1.77,1.8,2.58,7.19,10.28,14.37,20.56,21.57,30.84,.16,.23,.42,.54,.65,.54,1.58,.05,3.17,.03,4.87,.03-.21-.32-.34-.53-.48-.73-2.31-3.3-4.62-6.6-6.93-9.91-5.32-7.6-10.63-15.21-15.95-22.8-.16-.23-.43-.52-.66-.53Z"/>
  <path d="M51.5,.5H12.5C5.9,.5,.5,5.9,.5,12.5V51.5c0,6.6,5.4,12,12,12H51.5c6.6,0,12-5.4,12-12V12.5c0-6.6-5.4-12-12-12Zm-.86,51.49c-3.33,0-6.66-.01-9.99,.01-.56,0-.88-.16-1.2-.62-3.2-4.7-6.43-9.38-9.65-14.07-.17-.25-.35-.5-.58-.81-1.65,1.91-3.26,3.78-4.87,5.65-2.68,3.11-5.36,6.22-8.03,9.35-.32,.37-.65,.52-1.13,.5-.85-.04-1.71-.01-2.74-.01,.7-.82,1.3-1.55,1.91-2.26,4.29-4.98,8.58-9.97,12.89-14.94,.41-.47,.3-.76,0-1.19-4.78-6.93-9.54-13.87-14.3-20.8-.14-.21-.28-.43-.47-.73,.3-.01,.52-.03,.74-.03,3.38,0,6.76,.01,10.14-.01,.53,0,.84,.16,1.13,.59,3.05,4.46,6.11,8.91,9.17,13.36,.15,.21,.3,.42,.49,.7,.24-.26,.45-.47,.64-.7,3.71-4.31,7.44-8.62,11.12-12.96,.61-.72,1.21-1.11,2.16-1,.66,.08,1.33,.01,2.17,.01-4.92,5.72-9.72,11.3-14.55,16.92,5.26,7.65,10.5,15.28,15.83,23.03h-.91Z"/>
</svg>