<?xml version="1.0" encoding="UTF-8"?>
<svg id="_圖層_1" data-name="圖層 1" xmlns="http://www.w3.org/2000/svg" viewBox="0 0 64 64">
  <circle cx="32.18" cy="29.9" r="5.02"/>
  <path d="M32.18,37.78c-4.25,0-7.71-3.37-7.86-7.58h-4.58v11.76c0,1.34,1.09,2.43,2.43,2.43h20.34c1.34,0,2.43-1.09,2.43-2.43v-11.76h-4.89c-.16,4.21-3.61,7.58-7.86,7.58Z"/>
  <path d="M51.5,.5H12.5C5.9,.5,.5,5.9,.5,12.5V51.5c0,6.6,5.4,12,12,12H51.5c6.6,0,12-5.4,12-12V12.5c0-6.6-5.4-12-12-12Zm.5,45.88c0,3.09-2.53,5.62-5.62,5.62H17.62c-3.09,0-5.62-2.53-5.62-5.62V17.62c0-3.09,2.53-5.62,5.62-5.62h28.76c3.09,0,5.62,2.53,5.62,5.62v28.76Z"/>
  <path d="M43.13,17.78c-1.49,0-2.69,1.2-2.69,2.69s1.2,2.69,2.69,2.69,2.69-1.2,2.69-2.69-1.2-2.69-2.69-2.69Z"/>
</svg>