<?xml version="1.0" encoding="UTF-8"?>
<svg id="_圖層_1" data-name="圖層 1" xmlns="http://www.w3.org/2000/svg" viewBox="0 0 64 64">
  <path d="M28.21,25.43c-.49,0-.75,.34-.76,1.03,0,1.98,0,3.95,0,5.93,0,.62,.34,1.03,.79,1.02,.45-.01,.76-.42,.76-1.05,0-.99,0-1.98,0-2.96,0-.97,0-1.93,0-2.9,0-.71-.29-1.08-.79-1.07Z"/>
  <path d="M36.71,26.25c0-.46-.23-.77-.71-.81-.46-.04-.69,.26-.79,.66-.05,.2-.05,.42-.05,.62,0,.95,0,1.89,0,2.84,0,.17-.04,.33-.09,.66-.27-.35-.44-.57-.6-.78-.89-1.2-1.75-2.42-2.68-3.59-.18-.23-.66-.42-.9-.33-.24,.08-.51,.52-.51,.81-.04,2.06-.03,4.12-.02,6.18,0,.5,.26,.89,.78,.89,.52,0,.76-.4,.77-.9,0-1.01,0-2.02,0-3.03,0-.22,.02-.44,.04-.65,.05-.02,.1-.04,.14-.05,.14,.17,.29,.33,.42,.5,.9,1.22,1.77,2.46,2.7,3.65,.19,.25,.63,.46,.93,.43,.44-.04,.59-.46,.58-.91-.01-1.22,0-2.44,0-3.66,0-.84,0-1.68,0-2.52Z"/>
  <path d="M25.65,31.88c-.53,0-1.05-.03-1.58,0-.58,.04-.77-.19-.76-.76,.03-1.58,.02-3.15,0-4.73,0-.51-.18-.93-.78-.95-.48-.02-.76,.33-.77,.94-.01,.99,0,1.98,0,2.96,0,1.03,0,2.06,0,3.09,0,.56,.25,.96,.83,.98,1.03,.04,2.06,.03,3.09,0,.48-.01,.81-.26,.79-.79-.02-.52-.34-.74-.83-.75Z"/>
  <path d="M40.1,30.17c.55,0,1.09,0,1.64,0,.68-.01,1.05-.28,1.02-.76-.05-.6-.46-.74-.98-.73-.55,0-1.09,0-1.64,0-.7,0-.59-.5-.61-.93-.02-.45,.05-.79,.64-.76,.61,.03,1.22,.03,1.83-.03,.46-.04,.8-.33,.76-.84-.04-.48-.38-.68-.84-.68-.51,0-1.01,0-1.52,0h0c-.46,0-.93-.01-1.39,0-.71,.02-.96,.25-.97,.95-.01,2.04,0,4.08,0,6.13,0,.59,.29,.91,.88,.92,.99,.02,1.98,.02,2.97,0,.48,0,.85-.26,.85-.75,0-.52-.34-.79-.86-.8-.59,0-1.18-.02-1.77,0-.63,.02-.59-.41-.58-.81,0-.4-.11-.9,.57-.89Z"/>
  <path d="M32,.5C14.6,.5,.5,14.6,.5,32s14.1,31.5,31.5,31.5,31.5-14.1,31.5-31.5S49.4,.5,32,.5Zm15.56,36.68c-1.72,2.29-3.79,4.24-6.09,5.9-2.74,1.97-5.58,3.8-8.4,5.67-.45,.3-.97,.5-1.48,.66-.92,.29-1.37-.12-1.24-1.07,.08-.58,.17-1.17,.26-1.75,.25-1.62-.18-2.11-1.82-2.47-1.77-.39-3.57-.79-5.23-1.47-3.89-1.6-7-4.18-8.68-8.12-2.1-4.93-1.26-9.52,2.18-13.56,3.27-3.85,7.61-5.71,12.56-6.29,.8-.09,1.6-.12,2.3-.18,5.7,.18,10.69,1.82,14.65,5.98,4.52,4.75,4.93,11.45,.99,16.7Z"/>
</svg>