<?xml version="1.0" encoding="UTF-8"?>
<svg id="_圖層_1" data-name="圖層 1" xmlns="http://www.w3.org/2000/svg" viewBox="0 0 64 64">
  <path d="M37.6,25.32c0-.55-.27-.92-.84-.96-.55-.04-.82,.31-.94,.79-.06,.24-.06,.5-.06,.74,0,1.13,0,2.25,0,3.38,0,.2-.05,.39-.1,.78-.33-.42-.53-.67-.72-.93-1.06-1.43-2.08-2.88-3.19-4.27-.21-.27-.78-.5-1.07-.4-.29,.1-.6,.62-.61,.97-.05,2.45-.03,4.91-.02,7.36,0,.6,.3,1.06,.93,1.06,.62,0,.91-.47,.91-1.08,.01-1.2,0-2.4,0-3.6,0-.26,.03-.52,.04-.78,.06-.02,.11-.04,.17-.06,.17,.2,.34,.39,.5,.6,1.07,1.45,2.1,2.93,3.22,4.34,.23,.29,.75,.54,1.11,.51,.53-.05,.7-.55,.69-1.09-.01-1.45,0-2.9,0-4.36,0-1,0-2-.01-3Z"/>
  <path d="M24.42,32.02c-.63-.01-1.25-.04-1.88,0-.69,.05-.92-.23-.91-.91,.03-1.88,.02-3.75,0-5.63,0-.6-.21-1.1-.93-1.13-.57-.02-.91,.39-.92,1.12-.01,1.18,0,2.35,0,3.53,0,1.23,0,2.45,0,3.68,0,.67,.3,1.15,.99,1.17,1.22,.04,2.45,.03,3.68,0,.57-.01,.96-.31,.94-.94-.02-.61-.41-.88-.99-.89Z"/>
  <path d="M27.47,24.35c-.59,.01-.9,.41-.9,1.23-.01,2.35,0,4.7,0,7.05,0,.74,.4,1.23,.94,1.22,.53-.01,.9-.5,.91-1.25,.01-1.18,0-2.35,0-3.53,0-1.15,0-2.3,0-3.45,0-.84-.35-1.28-.95-1.27Z"/>
  <path d="M41.63,29.99c.65,.01,1.3,0,1.95,0,.81-.01,1.25-.34,1.21-.91-.05-.71-.55-.88-1.17-.87-.65,0-1.3-.01-1.95,0-.83,0-.7-.59-.72-1.11-.02-.53,.06-.94,.76-.9,.72,.03,1.46,.03,2.18-.04,.55-.05,.95-.4,.9-1-.05-.57-.45-.8-.99-.81-.6,0-1.2,0-1.8,0h0c-.55,0-1.1-.02-1.65,0-.84,.02-1.14,.3-1.15,1.13-.01,2.43,0,4.86,0,7.29,0,.71,.35,1.09,1.04,1.1,1.18,.02,2.36,.02,3.53,0,.57,0,1.01-.31,1.02-.89,0-.62-.4-.94-1.03-.95-.7,0-1.4-.02-2.1,0-.75,.02-.7-.49-.69-.97,0-.48-.14-1.07,.67-1.06Z"/>
  <path d="M51.5,.5H12.5C5.9,.5,.5,5.9,.5,12.5V51.5c0,6.6,5.4,12,12,12H51.5c6.6,0,12-5.4,12-12V12.5c0-6.6-5.4-12-12-12Zm-1.72,37.42c-1.96,2.62-4.33,4.85-6.96,6.74-3.13,2.25-6.38,4.34-9.6,6.48-.51,.34-1.11,.57-1.69,.76-1.05,.33-1.57-.14-1.42-1.22,.09-.67,.2-1.33,.3-2,.29-1.86-.21-2.41-2.08-2.83-2.02-.45-4.08-.9-5.98-1.68-4.45-1.82-8-4.77-9.92-9.28-2.4-5.64-1.44-10.88,2.49-15.49,3.74-4.4,8.7-6.52,14.35-7.19,.91-.11,1.83-.14,2.63-.2,6.51,.2,12.21,2.08,16.74,6.83,5.17,5.43,5.63,13.09,1.13,19.09Z"/>
</svg>