<?xml version="1.0" encoding="UTF-8"?>
<svg id="_圖層_1" data-name="圖層 1" xmlns="http://www.w3.org/2000/svg" viewBox="0 0 64 64">
  <path d="M51.5,0H12.5C5.9,0,.5,5.4,.5,12V51c0,6.6,5.4,12,12,12h20.18c-.06-.16-.09-.32-.09-.5v-21.63h-6.51c-.83,0-1.5-.67-1.5-1.5v-8.23c0-.83,.67-1.5,1.5-1.5h6.51v-8.56c0-5.5,4.5-10,10-10h8.65c.83,0,1.5,.67,1.5,1.5v7.14c0,.83-.67,1.5-1.5,1.5h-6.51c-.55,0-1,.45-1,1v6.43c0,.55,.45,1,1,1h6.51c.83,0,1.5,.67,1.5,1.5v8.23c0,.83-.67,1.5-1.5,1.5h-7.51v21.63c0,.18-.04,.34-.09,.5h7.87c6.6,0,12-5.4,12-12V12C63.5,5.4,58.1,0,51.5,0Z"/>
</svg>