<?xml version="1.0" encoding="UTF-8"?>
<svg id="_圖層_1" data-name="圖層 1" xmlns="http://www.w3.org/2000/svg" viewBox="0 0 64 64">
  <path d="M42.71,17.99c-1.61,0-2.92,1.31-2.92,2.92s1.31,2.92,2.92,2.92,2.92-1.31,2.92-2.92-1.31-2.92-2.92-2.92Z"/>
  <path d="M32.15,37.61c-4.1,0-7.44-3.25-7.59-7.32h-4.42v11.35c0,1.29,1.06,2.35,2.35,2.35h19.63c1.29,0,2.35-1.06,2.35-2.35v-11.35h-4.72c-.15,4.07-3.48,7.32-7.59,7.32Z"/>
  <circle cx="32.15" cy="30.01" r="4.84"/>
  <path d="M32,.5C14.6,.5,.5,14.6,.5,32s14.1,31.5,31.5,31.5,31.5-14.1,31.5-31.5S49.4,.5,32,.5Zm17.5,44.08c0,2.71-2.21,4.92-4.92,4.92H19.42c-2.71,0-4.92-2.21-4.92-4.92V19.42c0-2.71,2.21-4.92,4.92-4.92h25.16c2.71,0,4.92,2.21,4.92,4.92v25.16Z"/>
</svg>