<?xml version="1.0" encoding="UTF-8"?>
<svg id="_圖層_1" data-name="圖層 1" xmlns="http://www.w3.org/2000/svg" viewBox="0 0 64 64">
  <path d="M32,.5C14.6,.5,.5,14.6,.5,32s14.1,31.5,31.5,31.5,31.5-14.1,31.5-31.5S49.4,.5,32,.5Zm9.31,19.71c0,.55-.45,.99-.99,.99h-4.31c-.37,0-.66,.3-.66,.66v4.25c0,.37,.3,.66,.66,.66h4.31c.55,0,.99,.45,.99,.99v5.45c0,.55-.45,.99-.99,.99h-4.97v14.3c0,.55-.45,.99-.99,.99h-5.38c-.55,0-.99-.45-.99-.99v-14.3h-4.31c-.55,0-.99-.45-.99-.99v-5.45c0-.55,.45-.99,.99-.99h4.31v-5.66c0-3.64,2.98-6.61,6.61-6.61h5.72c.55,0,.99,.45,.99,.99v4.72Z"/>
</svg>