<?xml version="1.0" encoding="UTF-8"?>
<svg id="_圖層_1" data-name="圖層 1" xmlns="http://www.w3.org/2000/svg" viewBox="0 0 64 64">
  <path d="M32,.5C14.6,.5,.5,14.6,.5,32s14.1,31.5,31.5,31.5,31.5-14.1,31.5-31.5S49.4,.5,32,.5Zm16.64,25.2c-.84,.46-1.93,.78-2.4,1.5-.47,.71-.25,1.85-.44,2.78-1.68,8.16-6.19,13.94-14.33,16.34-5.68,1.68-11.15,.81-16.2-2.34-.97-.6-1.02-1.67-.1-2.09,.27-.12,.62-.13,.93-.11,2.1,.14,4.14-.07,6.08-.97,.16-.07,.3-.17,.51-.3-1.28-.64-2.39-1.39-3.18-2.51-.38-.54-.67-1.13-.98-1.71-.33-.64-.41-1.29,.03-1.94-1.28-1.27-2.17-2.73-2.53-4.49-.08-.42-.13-.86-.16-1.29-.05-.67,.26-1.13,.93-1.39-.75-1.52-1.14-3.11-.84-4.77,.18-.97,.5-1.94,.9-2.84,.45-1,1.4-1.03,2.11-.16,1.22,1.49,2.63,2.79,4.25,3.83,1.7,1.1,3.52,1.9,5.52,2.33,.1-.67,.15-1.32,.3-1.95,1.59-6.58,9.46-8.99,14.48-4.44,.35,.32,.62,.38,1,.18,.71-.37,1.42-.72,2.13-1.09,.49-.25,1-.46,1.46-.05,.49,.44,.34,.98,.07,1.5-.5,.97-.97,1.95-1.5,3.01,.61,.2,1.16,.37,1.71,.55,.54,.18,1.04,.41,1.11,1.06,.08,.67-.31,1.04-.85,1.34Z"/>
</svg>