<?xml version="1.0" encoding="UTF-8"?>
<svg id="_圖層_1" data-name="圖層 1" xmlns="http://www.w3.org/2000/svg" viewBox="0 0 64 64">
  <path d="M32,.5C14.6,.5,.5,14.6,.5,32s14.1,31.5,31.5,31.5,31.5-14.1,31.5-31.5S49.4,.5,32,.5Zm16.31,48.99c-2.91,0-5.83-.01-8.74,.01-.49,0-.77-.14-1.05-.55-2.8-4.11-5.63-8.21-8.45-12.31-.15-.22-.31-.43-.5-.7-1.44,1.67-2.85,3.31-4.26,4.94-2.34,2.72-4.69,5.45-7.02,8.18-.28,.33-.57,.46-.99,.44-.75-.03-1.5,0-2.4,0,.61-.72,1.14-1.35,1.67-1.98,3.75-4.36,7.5-8.73,11.28-13.07,.36-.42,.26-.66,0-1.04-4.18-6.06-8.35-12.13-12.52-18.2-.13-.18-.24-.37-.41-.64,.26-.01,.45-.03,.65-.03,2.96,0,5.92,0,8.87-.01,.46,0,.73,.14,.99,.52,2.66,3.9,5.35,7.8,8.02,11.69,.13,.18,.26,.37,.43,.61,.21-.22,.39-.41,.56-.61,3.25-3.77,6.51-7.54,9.73-11.34,.53-.63,1.06-.97,1.89-.87,.57,.07,1.16,.01,1.9,.01-4.3,5-8.51,9.89-12.73,14.8,4.6,6.7,9.19,13.37,13.85,20.15h-.79Z"/>
  <path d="M23.51,17.1c-1.38-.04-2.77-.02-4.3-.02,.6,.85,1.09,1.57,1.59,2.28,6.34,9.07,12.68,18.14,19.03,27.21,.14,.2,.37,.47,.57,.48,1.4,.04,2.8,.02,4.3,.02-.18-.28-.3-.47-.42-.65-2.04-2.91-4.08-5.83-6.11-8.74-4.69-6.71-9.38-13.42-14.08-20.12-.14-.2-.38-.46-.58-.47Z"/>
</svg>