<?xml version="1.0" encoding="UTF-8"?>
<svg id="_圖層_1" data-name="圖層 1" xmlns="http://www.w3.org/2000/svg" viewBox="0 0 64 64">
  <path d="M51.5,.5H12.5C5.9,.5,.5,5.9,.5,12.5V51.5c0,6.6,5.4,12,12,12H51.5c6.6,0,12-5.4,12-12V12.5c0-6.6-5.4-12-12-12Zm2.46,23.18c-1.11,.61-2.54,1.03-3.17,1.98-.62,.94-.33,2.44-.58,3.67-2.22,10.77-8.16,18.4-18.92,21.57-7.5,2.21-14.71,1.07-21.38-3.09-1.28-.79-1.34-2.21-.14-2.76,.36-.16,.82-.18,1.23-.15,2.77,.19,5.47-.1,8.02-1.28,.21-.1,.4-.23,.68-.39-1.69-.84-3.15-1.84-4.2-3.31-.5-.71-.89-1.49-1.29-2.26-.44-.84-.54-1.71,.04-2.56-1.69-1.68-2.87-3.61-3.33-5.92-.11-.56-.17-1.13-.22-1.7-.07-.89,.35-1.49,1.22-1.83-.98-2-1.51-4.1-1.1-6.29,.24-1.28,.65-2.55,1.19-3.74,.59-1.32,1.84-1.37,2.78-.22,1.61,1.97,3.47,3.68,5.61,5.06,2.24,1.45,4.65,2.5,7.28,3.08,.13-.88,.19-1.75,.39-2.58,2.1-8.68,12.49-11.87,19.11-5.86,.46,.42,.81,.5,1.33,.24,.93-.49,1.88-.95,2.81-1.44,.64-.34,1.32-.61,1.93-.06,.65,.58,.45,1.29,.09,1.98-.66,1.28-1.29,2.58-1.98,3.97,.8,.26,1.53,.49,2.26,.73,.71,.23,1.37,.54,1.47,1.4,.1,.88-.41,1.37-1.13,1.77Z"/>
</svg>